HIERARCHY
ROOT Hips
{
    OFFSET 0.0 0.0 0.0
    CHANNELS 6 Xposition Yposition Zposition Zrotation Xrotation Yrotation
    JOINT LHipJoint
    {
        OFFSET 0.1 0.0 0.0
        CHANNELS 3 Zrotation Xrotation Yrotation
        JOINT LeftHip
        {
            OFFSET 0.10055597126483917 0.0 0.0
            CHANNELS 3 Zrotation Xrotation Yrotation
            JOINT LeftKnee
            {
                OFFSET 0.0 0.0 -0.48891836404800415
                CHANNELS 3 Zrotation Xrotation Yrotation
                JOINT LeftAnkle
                {
                    OFFSET 0.0 0.0 -0.48738282918930054
                    CHANNELS 3 Zrotation Xrotation Yrotation
                    End Site
                    {
                        OFFSET 0.0 -0.1 0.0
                    }
                }
            }
        }
    }
    JOINT lowerback
    {
        OFFSET 0.0 0.0 0.1
        CHANNELS 3 Zrotation Xrotation Yrotation
        JOINT Chest
        {
            OFFSET 0.0 0.0 0.22510935366153717
            CHANNELS 3 Zrotation Xrotation Yrotation
            JOINT Chest2
            {
                OFFSET 0.0 0.0 0.23158642649650574
                CHANNELS 3 Zrotation Xrotation Yrotation
                JOINT LeftCollar
                {
                    OFFSET 0.1 0.0 0.0
                    CHANNELS 3 Zrotation Xrotation Yrotation
                    JOINT LeftShoulder
                    {
                        OFFSET 0.12451477348804474 0.0 0.0
                        CHANNELS 3 Zrotation Xrotation Yrotation
                        JOINT LeftElbow
                        {
                            OFFSET 0.25232741236686707 0.0 0.0
                            CHANNELS 3 Zrotation Xrotation Yrotation
                            JOINT LeftWrist
                            {
                                OFFSET 0.25094789266586304 0.0 0.0
                                CHANNELS 3 Zrotation Xrotation Yrotation
                                End Site
                                {
                                    OFFSET 0.1 0.0 0.0
                                }
                            }
                        }
                    }
                }
                JOINT Neck
                {
                    OFFSET 0.0 0.0 0.1
                    CHANNELS 3 Zrotation Xrotation Yrotation
                    JOINT Head
                    {
                        OFFSET 0.0 0.0 0.12410868704319
                        CHANNELS 3 Zrotation Xrotation Yrotation
                        End Site
                        {
                            OFFSET 0.0 0.0 0.12724411487579346
                        }
                    }
                }
                JOINT RightCollar
                {
                    OFFSET -0.1 0.0 0.0
                    CHANNELS 3 Zrotation Xrotation Yrotation
                    JOINT RightShoulder
                    {
                        OFFSET -0.12451477348804474 0.0 0.0
                        CHANNELS 3 Zrotation Xrotation Yrotation
                        JOINT RightElbow
                        {
                            OFFSET -0.25232741236686707 0.0 0.0
                            CHANNELS 3 Zrotation Xrotation Yrotation
                            JOINT RightWrist
                            {
                                OFFSET -0.25094789266586304 0.0 0.0
                                CHANNELS 3 Zrotation Xrotation Yrotation
                                End Site
                                {
                                    OFFSET -0.1 0.0 0.0
                                }
                            }
                        }
                    }
                }
            }
        }
    }
    JOINT RHipJoint
    {
        OFFSET -0.1 0.0 0.0
        CHANNELS 3 Zrotation Xrotation Yrotation
        JOINT RightHip
        {
            OFFSET -0.10055597126483917 0.0 0.0
            CHANNELS 3 Zrotation Xrotation Yrotation
            JOINT RightKnee
            {
                OFFSET 0.0 0.0 -0.48891836404800415
                CHANNELS 3 Zrotation Xrotation Yrotation
                JOINT RightAnkle
                {
                    OFFSET 0.0 0.0 -0.48738282918930054
                    CHANNELS 3 Zrotation Xrotation Yrotation
                    End Site
                    {
                        OFFSET 0.0 -0.1 0.0
                    }
                }
            }
        }
    }
}
MOTION
Frames: 6
Frame Time: 0.03333333333333333
0.00013856844452675432 1.298595905303955 2.0266292267479002e-05 -78.15511866095713 -27.286654795433133 -91.01647802043497 0.0 0.0 0.0 -1.5042305079607021 -35.121419010986635 12.331719382359015 13.82243283179425 41.958242946775265 -8.374898079749746 -1.7655625192200634e-31 -6.3611093629270335e-15 -3.1805546814635168e-15 0.0 0.0 0.0 0.20647874224983515 5.539424785438646 -1.8009784693762805 17.559795522844233 2.073501944721165e-06 -4.670935076957434e-06 -3.1805546814635168e-15 -4.4139062980501586e-32 1.5902773407317584e-15 -44.16086668373357 16.45363418852351 50.919725021192306 -10.494294034777688 -1.1244554953917273e-05 -2.2324537518904547e-06 -8.827812596100317e-32 -3.1805546814635168e-15 -3.1805546814635168e-15 -3.1805546814635168e-15 -4.4139062980501586e-32 1.5902773407317584e-15 8.700340853599307 3.0238707800360265 3.3183811397028493 -3.1805546814635168e-15 -4.4139062980501586e-32 1.5902773407317584e-15 -43.22774661497239 -3.973145585104545 -38.38515474450638 121.8578354427172 -4.479962884285584e-06 -1.1711780095799324e-06 -4.770832022195275e-15 6.3611093629270335e-15 2.648343778830095e-31 0.0 0.0 0.0 -0.8213885560304882 -21.55816013893578 -12.330488146083349 -9.835991896773137 44.10369794660287 -0.3766139736896242 6.3611093629270335e-15 4.413906298050159e-31 7.951386703658792e-15
0.00013727309124078602 1.298598289489746 1.822834019549191e-05 -75.58445920558896 -25.65759005688026 -86.50217771134122 -3.1805546814635168e-15 6.3611093629270335e-15 3.1805546814635168e-15 -4.730116373691683 -35.41533611054565 5.918951860488525 11.900778327560966 39.64482373501701 -4.568431237410992 -3.1805546814635168e-15 0.0 0.0 -3.1805546814635168e-15 6.3611093629270335e-15 3.1805546814635168e-15 0.5114527759993316 4.411009500806161 -3.324323376205386 19.065260962886434 -3.086475377936098e-06 4.248643772288073e-06 3.1805546814635168e-15 0.0 0.0 -37.52421159603851 13.1738025176825 48.73188987527983 -13.970332263309064 5.344588871849121e-06 1.9487289752985917e-06 0.0 0.0 -3.1805546814635168e-15 3.1805546814635168e-15 0.0 0.0 8.206494577349732 0.2877818103773455 1.6003244977625743 3.1805546814635168e-15 0.0 0.0 -43.732352248482655 -3.1796673667436477 -39.151624336415345 121.83851160495233 1.740001954537954e-06 -7.342248475982987e-07 -3.1805546814635168e-15 -3.975693351829396e-16 -1.1034765745125397e-32 -3.1805546814635168e-15 6.3611093629270335e-15 3.1805546814635168e-15 -2.8392214240767526 -23.33568251239235 -16.343509688456095 -9.274123139853144 45.156936587583814 -0.8164824794950694 -1.5902773407317584e-15 -3.310429723537619e-32 2.3854160110976376e-15
0.00013250864867586643 1.2985951900482178 1.6119840438477695e-05 -75.53822095485611 -24.39719395690737 -87.60356731350042 -1.7655625192200634e-31 -6.3611093629270335e-15 -3.1805546814635168e-15 -4.198565291469288 -34.53341056450528 6.2425794045014085 11.165732854292845 38.78230411630142 -3.013648787279562 3.1805546814635168e-15 -8.827812596100317e-32 -3.1805546814635168e-15 -1.7655625192200634e-31 -6.3611093629270335e-15 -3.1805546814635168e-15 0.37798812967072937 3.557894999699216 -2.3877019889914983 19.174853103220425 6.647382058967469e-07 5.3555244144813015e-06 -2.648343778830095e-31 6.361109362927033e-15 4.770832022195274e-15 -34.5744294346177 7.893899355222409 49.985766555839696 -8.127935742586185 5.034498472134117e-06 -1.6987430167281577e-06 -6.361109362927033e-15 -3.1805546814635164e-15 -1.7655625192200634e-31 -2.648343778830095e-31 6.361109362927033e-15 4.770832022195274e-15 9.092198289903218 0.7384798045221058 2.341237843763613 -2.648343778830095e-31 6.361109362927033e-15 4.770832022195274e-15 -44.8634592418832 -0.09447969234057585 -39.54257599635736 123.58603702492731 -3.8545994111074014e-07 2.0836996412841015e-06 -1.5902773407317584e-15 6.3611093629270335e-15 8.827812596100317e-32 -1.7655625192200634e-31 -6.3611093629270335e-15 -3.1805546814635168e-15 -2.526657146597308 -22.74645862257809 -14.84696591888679 -8.57199402294699 45.8543529492705 -1.0743751638896322 1.5902773407317584e-15 -6.361109362927035e-15 -6.361109362927035e-15
0.000129730993648991 1.2985888719558716 1.6718331607989967e-05 -76.0286068891598 -23.33686485140795 -88.12237257162326 6.3611093629270335e-15 0.0 0.0 -3.8182186285236157 -32.65551813315302 5.893463846933482 10.105492922986807 37.525247552645126 -2.033007680735114 -1.7655625192200634e-31 6.3611093629270335e-15 3.1805546814635168e-15 6.3611093629270335e-15 0.0 0.0 0.4127592180042217 3.9809223209813163 -2.366067612973374 18.82842528953301 1.294246925120017e-06 -4.017441855835591e-06 6.3611093629270335e-15 -8.827812596100317e-32 -1.5902773407317584e-15 -38.648211421198596 10.963079357223746 51.98564557831885 -9.292264786049945 -1.8795154190964727e-05 -3.2491612391302346e-06 -6.3611093629270335e-15 8.827812596100317e-32 -1.5902773407317584e-15 6.3611093629270335e-15 -8.827812596100317e-32 -1.5902773407317584e-15 8.599666130657036 1.3677009790327315 3.7835978115815085 6.3611093629270335e-15 -8.827812596100317e-32 -1.5902773407317584e-15 -40.25008254367936 2.3945873238847426 -43.60038747824683 120.5488639765865 3.179158961972788e-06 -9.694434385925767e-08 0.0 0.0 3.180554681463516e-15 6.3611093629270335e-15 0.0 0.0 -2.2738285102746274 -21.180177070569044 -14.38147518390676 -7.966890326606062 44.612088224435055 -1.634271229746387 3.1805546814635176e-15 8.827812596100317e-32 3.1805546814635176e-15
0.0001324427721556276 1.298609733581543 8.939139661379158e-06 -76.0951929342983 -24.543144641179072 -86.93213970025387 3.180554681463516e-15 -6.361109362927033e-15 -3.180554681463516e-15 -4.746974955094712 -34.35104478291273 3.6223387623336096 9.638526265626265 38.41805930497059 -3.3096955803180044 3.1805546814635168e-15 -6.3611093629270335e-15 1.7655625192200634e-31 3.180554681463516e-15 -6.361109362927033e-15 -3.180554681463516e-15 -0.09485695408852514 -0.7849486160709003 -4.5903755243424245 20.450459433087627 3.2005235453865747e-06 1.7211171631379017e-06 -8.827812596100317e-32 -6.3611093629270335e-15 -1.5902773407317584e-15 131.42437582306087 -8.163404879857998 123.47054704166766 -5.950363886061778 -1.1347412607312629e-05 -1.6737934563495408e-06 -7.951386703658792e-16 -2.2069531490250793e-32 3.1805546814635168e-15 -8.827812596100317e-32 -6.3611093629270335e-15 -1.5902773407317584e-15 23.59445929901553 -1.8388125624301994 -10.293141468615548 -8.827812596100317e-32 -6.3611093629270335e-15 -1.5902773407317584e-15 -40.732459176076006 7.917890516391145 -41.01331731961996 116.58738435670105 -4.311408826398179e-06 1.3243169164873763e-06 1.5902773407317584e-15 0.0 0.0 3.180554681463516e-15 -6.361109362927033e-15 -3.180554681463516e-15 -2.653496550675947 -21.135950476692205 -18.732234891323486 -11.0248921947219 43.76027763426278 -1.8168672740874188 1.5902773407317584e-15 -1.2138242319637935e-31 -8.74652537402467e-15
0.0001238444820046425 1.2985981702804565 1.2737844372168183e-05 -79.02978166779488 -23.473362747378157 -88.36216497942962 3.1805546814635164e-15 6.361109362927033e-15 -1.7655625192200634e-31 -4.951681840274916 -29.797546115061593 3.813299598951702 10.009234665901959 35.63931465098172 -2.6558743051883864 -1.7655625192200634e-31 -3.180554681463516e-15 -6.361109362927032e-15 3.1805546814635164e-15 6.361109362927033e-15 -1.7655625192200634e-31 0.21879526653068684 1.4545968341746842 -3.9935292173632724 18.524231612621247 1.3142976208019595e-06 -1.827609094408207e-06 3.1805546814635176e-15 -8.827812596100317e-32 -3.1805546814635176e-15 110.09508704807925 -9.510033110486187 114.5279321140268 -18.01560225183737 -2.9936849152114514e-06 -6.946918542467612e-07 -7.106551866395046e-15 0.0 0.0 3.1805546814635176e-15 -8.827812596100317e-32 -3.1805546814635176e-15 30.68388524630716 -2.5081578822462087 -13.104873721008676 3.1805546814635176e-15 -8.827812596100317e-32 -3.1805546814635176e-15 -37.96346298992638 9.24937549961812 -41.13038253765186 112.53025509300264 1.0620158719970914e-06 1.6227215849236863e-07 1.7517690620386567e-31 -6.311413196029166e-15 3.1805546814635168e-15 3.1805546814635164e-15 6.361109362927033e-15 -1.7655625192200634e-31 -2.6397552341972976 -17.172451953759747 -15.859739544880435 -7.111181927799667 45.83691815912113 -6.146061215496153 0.0 -1.5902773407317584e-15 0.0
